<!-- Generated by scripts/generate-langs.js on 2026-02-28T06:16:49.656Z -->
<svg xmlns="http://www.w3.org/2000/svg" width="640" height="240" viewBox="0 0 640 240">
<style>
    .label{font: 12px 'Segoe UI', Roboto, Arial; fill:#cbd5e1}
    .legend{font: 12px 'Segoe UI', Roboto, Arial; fill:#e2e8f0}
    .title{font: 14px 'Segoe UI', Roboto, Arial; fill:#ffffff; font-weight:600}
  </style>
<rect width="100%" height="100%" fill="#0b1220" rx="8"/>
<text x="20" y="26" class="title">Languages — aggregated across public repos</text>
<g transform="translate(150, 120) rotate(-90)">
<circle r="60" cx="0" cy="0" fill="transparent" stroke="#11203a" stroke-width="20" />
<circle r="60" cx="0" cy="0" fill="transparent" stroke="#6366F1" stroke-width="20" stroke-linecap="butt"
      stroke-dasharray="184.56 376.99" stroke-dashoffset="0" transform="rotate(0)" />
<circle r="60" cx="0" cy="0" fill="transparent" stroke="#EF4444" stroke-width="20" stroke-linecap="butt"
      stroke-dasharray="131.33 376.99" stroke-dashoffset="-184.56" transform="rotate(0)" />
<circle r="60" cx="0" cy="0" fill="transparent" stroke="#F97316" stroke-width="20" stroke-linecap="butt"
      stroke-dasharray="16.07 376.99" stroke-dashoffset="-315.89" transform="rotate(0)" />
<circle r="60" cx="0" cy="0" fill="transparent" stroke="#F59E0B" stroke-width="20" stroke-linecap="butt"
      stroke-dasharray="14.59 376.99" stroke-dashoffset="-331.96" transform="rotate(0)" />
<circle r="60" cx="0" cy="0" fill="transparent" stroke="#10B981" stroke-width="20" stroke-linecap="butt"
      stroke-dasharray="10.81 376.99" stroke-dashoffset="-346.55" transform="rotate(0)" />
<circle r="60" cx="0" cy="0" fill="transparent" stroke="#06B6D4" stroke-width="20" stroke-linecap="butt"
      stroke-dasharray="5.48 376.99" stroke-dashoffset="-357.35" transform="rotate(0)" />
<circle r="60" cx="0" cy="0" fill="transparent" stroke="#3B82F6" stroke-width="20" stroke-linecap="butt"
      stroke-dasharray="4.34 376.99" stroke-dashoffset="-362.84" transform="rotate(0)" />
<circle r="60" cx="0" cy="0" fill="transparent" stroke="#8B5CF6" stroke-width="20" stroke-linecap="butt"
      stroke-dasharray="3.43 376.99" stroke-dashoffset="-367.18" transform="rotate(0)" />
<circle r="60" cx="0" cy="0" fill="transparent" stroke="#EC4899" stroke-width="20" stroke-linecap="butt"
      stroke-dasharray="2.12 376.99" stroke-dashoffset="-370.61" transform="rotate(0)" />
<circle r="60" cx="0" cy="0" fill="transparent" stroke="#94A3B8" stroke-width="20" stroke-linecap="butt"
      stroke-dasharray="1.95 376.99" stroke-dashoffset="-372.73" transform="rotate(0)" />
</g>
<g transform="translate(330,40)">
<rect x="0" y="-12" width="12" height="12" fill="#6366F1" rx="2"/>
<text x="18" y="-2" class="legend">Python — 49.0% (6.1 MB)</text>
<rect x="0" y="8" width="12" height="12" fill="#EF4444" rx="2"/>
<text x="18" y="18" class="legend">Kotlin — 34.8% (4.3 MB)</text>
<rect x="0" y="28" width="12" height="12" fill="#F97316" rx="2"/>
<text x="18" y="38" class="legend">C++ — 4.3% (543.9 KB)</text>
<rect x="0" y="48" width="12" height="12" fill="#F59E0B" rx="2"/>
<text x="18" y="58" class="legend">Java — 3.9% (493.9 KB)</text>
<rect x="0" y="68" width="12" height="12" fill="#10B981" rx="2"/>
<text x="18" y="78" class="legend">HTML — 2.9% (365.8 KB)</text>
<rect x="0" y="88" width="12" height="12" fill="#06B6D4" rx="2"/>
<text x="18" y="98" class="legend">JavaScript — 1.5% (185.7 KB)</text>
<rect x="0" y="108" width="12" height="12" fill="#3B82F6" rx="2"/>
<text x="18" y="118" class="legend">Shell — 1.2% (147.0 KB)</text>
<rect x="0" y="128" width="12" height="12" fill="#8B5CF6" rx="2"/>
<text x="18" y="138" class="legend">CSS — 0.9% (116.2 KB)</text>
<rect x="0" y="148" width="12" height="12" fill="#EC4899" rx="2"/>
<text x="18" y="158" class="legend">Batchfile — 0.6% (71.8 KB)</text>
<rect x="0" y="168" width="12" height="12" fill="#94A3B8" rx="2"/>
<text x="18" y="178" class="legend">C — 0.5% (66.0 KB)</text>
</g>
<text x="20" y="216" class="label">Total: 12.5 MB — Generated: 2026-02-28</text>
</svg>